<?xml version="1.0" encoding="utf-8"?>
<!-- Generator: Adobe Illustrator 24.0.2, SVG Export Plug-In . SVG Version: 6.00 Build 0)  -->
<svg version="1.1" id="svg" xmlns="http://www.w3.org/2000/svg" xmlns:xlink="http://www.w3.org/1999/xlink" x="0px" y="0px"
	 viewBox="0 0 400 297.2" style="enable-background:new 0 0 400 297.2;" xml:space="preserve">
<style type="text/css">
	.st0{fill:none;}
</style>
<g>
	<polygon class="st0" points="139.5,95.4 139.5,82.6 139.5,69.7 124.8,69.7 110.1,69.7 110.1,82.5 110.1,95.3 96.8,95.8 83.5,96.3 
		83.5,110.1 83.5,123.9 96.8,124.4 110.1,124.9 110.1,137.7 110.1,150.5 124.8,150.5 139.5,150.5 139.5,137.6 139.5,124.8 
		152.3,124.8 165.1,124.8 165.1,110.1 165.1,95.4 152.3,95.4 	"/>
	<path class="st0" d="M282,68.3c-11.5-5.7-22-2.2-27.5,9.1c-8.7,17.8,15.5,34.6,30,20.7C293.8,89.2,292.5,73.4,282,68.3z"/>
	<path class="st0" d="M279.9,120.3c-3.4-1.6-6.8-2.8-7.7-2.7c-25.3,3.5-25.8,38.3-0.5,38.3C292,156,298.2,129,279.9,120.3z"/>
	<path class="st0" d="M307.2,99.8c-12.1,12.1-4,32.3,13,32.3c17,0,25.2-20.2,13-32.3C324.5,91.1,315.8,91.1,307.2,99.8z"/>
	<path d="M369,109.6c-13.4-39.7-32.9-65.9-56.4-77.3c-22.6-11.1-47.3-9.5-75.4,7.6c-1.6-0.6-3.4-1-5.1-1.4
		c-5.7-1.1-11.4-1.9-17.2-2.2c-10.3-0.6-20.7-0.1-31,1.1c-5.2,0.6-10.4,1.3-15.6,2.1c-0.5,0.1-1,0.1-1.6,0.2
		c-26.9-14.1-49.1-17.4-68.9-10.3c-42.8,15.4-74.4,81.9-74.5,156.9C23,272,50.9,284,110.3,223.7c27.9-28.3,18.4-25.8,95.4-25.1
		l63.6,0.5l24.5,24.9c35.2,35.8,51.3,43.5,67.8,32.3C384.7,240.8,388.4,167.1,369,109.6z M165.1,110.1v11.1c0,2-1.6,3.6-3.6,3.6
		h-9.3h-7.6c-2.9,0-5.2,2.3-5.2,5.2v7.6v8.8c0,2.2-1.8,4.1-4.1,4.1h-10.6h-11c-2,0-3.7-1.7-3.7-3.7v-9.1v-8.6c0-2.3-1.8-5-4.1-5.1
		l-9.3-0.2l-9.6,0c-2,0-3.6-1.6-3.6-3.6v-10.1v-9.9c0-2.1,1.7-3.9,3.9-3.9l9.6,0l9.2,0.1c2.2,0,4-1.7,4-3.9v-10V69.7h14.7H136
		c1.9,0,3.5,1.6,3.5,3.5v9.4v9.3c0,2.3,1.9,4.2,4.2,4.2l8.5-0.1l9.7,0.1c1.8,0,3.3,1.5,3.3,3.3V110.1z M271.7,156
		c-25.2,0-24.8-34.9,0.5-38.3c0.9-0.1,4.3,1.1,7.7,2.7C298.2,129,292,156,271.7,156z M284.5,98.1c-14.5,13.8-38.7-2.9-30-20.7
		c5.5-11.3,16-14.8,27.5-9.1C292.5,73.4,293.8,89.2,284.5,98.1z M320.2,132.1c-17,0-25.1-20.2-13-32.3c7.3-7.3,18.8-7.3,26.1,0
		C345.3,111.9,337.2,132.1,320.2,132.1z"/>
</g>
</svg>
