<svg width="272" height="135" viewBox="0 0 272 135" fill="none" xmlns="http://www.w3.org/2000/svg">
<path d="M255.953 80.6818C256.176 78.916 256.303 77.1206 256.303 75.2947C256.303 56.7405 244.468 40.9559 227.938 35.0619C222.619 20.9155 208.97 10.8471 192.966 10.8471C188.045 10.8471 183.352 11.8073 179.049 13.536C174.747 11.8073 170.054 10.8471 165.134 10.8471C157.521 10.8471 150.444 13.1289 144.539 17.0391C137.825 7.10811 126.46 0.579101 113.57 0.579101C94.6426 0.579101 79.0153 14.6568 76.5583 32.9096C58.2196 35.2893 44.0514 50.9563 44.0514 69.9439C44.0514 71.0839 44.1108 72.2106 44.2106 73.3241C26.8611 78.4872 14.2056 94.5507 14.2056 113.578C14.2056 136.775 33.0102 155.579 56.2067 155.579L56.2074 155.579L229.854 155.579C253.051 155.579 271.856 136.775 271.856 113.578C271.856 100.247 265.638 88.3765 255.953 80.6818Z" fill="#00953A"/>
<path opacity="0.2" d="M144.54 17.0391C137.826 7.10811 126.461 0.579101 113.57 0.579101C94.6436 0.579101 79.0163 14.6568 76.5593 32.9096C58.2206 35.2893 44.0523 50.9563 44.0523 69.9439C44.0523 71.0839 44.1118 72.2106 44.2116 73.3241C26.8621 78.4872 14.2065 94.5507 14.2065 113.578C14.2065 136.775 33.0112 155.579 56.2077 155.579L145.014 155.579L145.014 16.7377C144.856 16.8389 144.696 16.936 144.54 17.0391Z" fill="#222222"/>
<path d="M229.82 61.2304C229.82 49.6222 220.407 40.2113 208.801 40.2113C197.191 40.2113 187.78 49.6222 187.78 61.2304C187.78 72.8392 197.19 82.2501 208.801 82.2501C220.407 82.2501 229.82 72.8392 229.82 61.2304Z" fill="white"/>
<path d="M208.8 68.2417C212.672 68.2417 215.811 65.1026 215.811 61.2303C215.811 57.358 212.672 54.2189 208.8 54.2189C204.928 54.2189 201.789 57.358 201.789 61.2303C201.789 65.1026 204.928 68.2417 208.8 68.2417Z" fill="#FF9500"/>
<path opacity="0.2" d="M208.801 40.2113C197.191 40.2113 187.78 49.6222 187.78 61.2304C187.78 72.8392 197.19 82.2501 208.801 82.2501L208.801 40.2113Z" fill="#222222"/>
<path opacity="0.2" d="M190.728 57.2567C188.302 57.2567 185.92 57.4391 183.588 57.7794C174.962 43.6085 159.37 34.1441 141.566 34.1441C134.925 34.1441 128.595 35.4684 122.817 37.8553C113.864 28.4874 101.258 22.6423 87.2778 22.6423C84.5261 22.6423 81.8286 22.871 79.1998 23.3058C77.9139 26.3245 77.0105 29.5454 76.5578 32.9097C58.2191 35.2893 44.0509 50.9563 44.0509 69.944C44.0509 71.0839 44.1103 72.2106 44.2101 73.3241C26.8607 78.4872 14.2051 94.5507 14.2051 113.578C14.2051 136.775 33.0097 155.579 56.2062 155.579L190.728 155.579C217.879 155.579 239.889 133.569 239.889 106.418C239.889 79.267 217.879 57.2567 190.728 57.2567Z" fill="#222222"/>
<path d="M172.66 60.3274C170.31 60.3274 168.002 60.5045 165.743 60.8336C157.386 47.1055 142.281 37.9371 125.033 37.9371C118.6 37.9371 112.468 39.2198 106.87 41.5321C98.1976 32.4569 85.9841 26.7942 72.4404 26.7942C50.7354 26.7942 32.435 41.3193 26.695 61.1753C4.66287 65.357 -12 84.7042 -12 107.953C-12 134.256 9.32239 155.578 35.6255 155.578L172.659 155.578C198.963 155.578 220.285 134.255 220.285 107.953C220.286 81.6505 198.963 60.3274 172.66 60.3274Z" fill="#77BC1F"/>
<path opacity="0.5" d="M72.4404 26.7942C50.7354 26.7942 32.435 41.3193 26.695 61.1753C4.66287 65.357 -12 84.7042 -12 107.953C-12 134.256 9.32239 155.578 35.6255 155.578L100.986 155.578L100.986 36.324C93.0312 30.3488 83.1564 26.7942 72.4404 26.7942Z" fill="#218649"/>
<path d="M194.777 109.392C194.777 97.7843 185.364 88.3734 173.758 88.3734C162.148 88.3734 152.737 97.7843 152.737 109.392C152.737 121.001 162.147 130.412 173.758 130.412C185.364 130.412 194.777 121.001 194.777 109.392Z" fill="white"/>
<path d="M173.758 116.404C177.63 116.404 180.769 113.265 180.769 109.393C180.769 105.52 177.63 102.381 173.758 102.381C169.886 102.381 166.747 105.52 166.747 109.393C166.747 113.265 169.886 116.404 173.758 116.404Z" fill="#FF9500"/>
<path opacity="0.2" d="M173.759 88.3734C162.149 88.3734 152.738 97.7843 152.738 109.392C152.738 121.001 162.148 130.412 173.759 130.412L173.759 88.3734Z" fill="#222222"/>
<path d="M55.1513 110.737C55.1513 99.1292 45.7384 89.7183 34.1329 89.7183C22.5221 89.7183 13.1118 99.1292 13.1118 110.737C13.1118 122.346 22.5214 131.757 34.1329 131.757C45.7384 131.757 55.1513 122.346 55.1513 110.737Z" fill="white"/>
<path d="M34.1325 117.749C38.0048 117.749 41.1439 114.61 41.1439 110.738C41.1439 106.865 38.0048 103.726 34.1325 103.726C30.2602 103.726 27.1211 106.865 27.1211 110.738C27.1211 114.61 30.2602 117.749 34.1325 117.749Z" fill="#FF9500"/>
<path opacity="0.2" d="M34.1338 89.7183C22.523 89.7183 13.1128 99.1292 13.1128 110.737C13.1128 122.346 22.5224 131.757 34.1338 131.757L34.1338 89.7183Z" fill="#222222"/>
<path d="M125.163 82.2495C125.163 70.6413 115.75 61.2304 104.145 61.2304C92.5338 61.2304 83.1235 70.6413 83.1235 82.2495C83.1235 93.8583 92.5331 103.269 104.145 103.269C115.749 103.27 125.163 93.859 125.163 82.2495Z" fill="white"/>
<path d="M104.143 89.2611C108.016 89.2611 111.155 86.122 111.155 82.2497C111.155 78.3774 108.016 75.2383 104.143 75.2383C100.271 75.2383 97.1318 78.3774 97.1318 82.2497C97.1318 86.122 100.271 89.2611 104.143 89.2611Z" fill="#FF9500"/>
<path opacity="0.2" d="M104.145 61.2304C92.5338 61.2304 83.1235 70.6413 83.1235 82.2495C83.1235 93.8583 92.5331 103.269 104.145 103.269L104.145 61.2304Z" fill="#222222"/>
</svg>
