<svg width="224" height="1080" viewBox="0 0 224 1080" fill="none" xmlns="http://www.w3.org/2000/svg">
<g filter="url(#filter0_d)">
<path d="M72.0531 -130.999C70.9772 -130.863 69.6122 -129.906 68.8768 -129.914C68.0192 -129.926 63.6164 -128.262 62.9142 -126.774C62.2128 -125.285 62.1619 -121.656 62.1619 -121.656C62.1619 -121.656 60.4033 -127.438 58.4562 -128.945C57.5609 -129.638 56.4096 -129.354 55.3634 -129.294C33.2968 -128.022 -11.2598 -120.574 -9.75134 -113.902C-9.75134 -113.869 -9.75215 -113.859 -9.75134 -113.825C-7.74176 -54.4207 -7.13735 -6.01698 -7.68952 37.4121H-7.74481C-8.48118 78.3963 -9.80663 116.763 -9.80663 152.556C-9.80663 214.236 -7.82362 218.894 -7.74481 264.287C-7.74481 265.504 -7.74418 266.422 -7.74481 267.699C-7.82327 313.091 -9.80663 317.75 -9.80663 379.431C-9.80663 415.117 -8.48243 453.378 -7.74481 494.225V494.613C-7.79206 541.097 -9.80663 545.228 -9.80663 607.43C-9.80663 642.531 -8.54511 680.119 -7.80053 720.209C-8.54511 760.301 -9.80663 797.927 -9.80663 833.027C-9.80663 896.099 -7.73527 899.304 -7.74481 947.666C-7.74481 947.866 -7.74463 948.007 -7.74481 948.209C-8.33344 988.052 -9.81038 1023.78 -9.80663 1059.28C-9.80663 1070.04 -9.71152 1080.82 -9.50004 1091.69C-9.50004 1092.55 -9.55631 1093.26 -9.55631 1093.75C-9.55631 1101.53 27.0569 1120.38 72.6383 1120.38C116.604 1120.38 153.149 1102.7 155.641 1095.3C155.661 1095.2 155.699 1095.02 155.696 1094.83V1094.02C155.676 1045.43 153.694 996.875 153.634 948.209C153.635 948.179 153.634 948.122 153.634 948.092C153.634 947.943 153.634 947.816 153.634 947.666C153.986 928.245 154.212 908.9 154.359 890.133C154.391 890.065 154.438 890.008 154.47 889.939C154.7 889.452 154.925 888.947 155.167 888.466C155.499 887.804 155.844 887.141 156.198 886.489C156.225 886.438 156.253 886.384 156.281 886.334C157.04 884.945 157.832 883.564 158.678 882.224C159.24 881.332 159.837 880.458 160.433 879.588C161.235 878.419 162.058 877.265 162.913 876.137C162.98 876.049 163.041 875.954 163.108 875.866C163.538 875.303 163.976 874.751 164.417 874.199C164.631 873.931 164.842 873.65 165.058 873.385C165.245 873.155 165.454 872.954 165.643 872.726C166.001 872.294 166.367 871.871 166.73 871.446C167.382 870.686 168.041 869.936 168.708 869.198C169.035 868.836 169.353 868.469 169.683 868.112C170.041 867.727 170.41 867.367 170.77 866.988C172.076 865.614 173.395 864.28 174.727 862.995C175.709 862.047 176.695 861.102 177.68 860.203C178.468 859.485 179.265 858.796 180.048 858.11C180.548 857.672 181.028 857.216 181.525 856.792C182.15 856.258 182.775 855.753 183.392 855.241C183.995 854.741 184.582 854.247 185.175 853.768C185.997 853.104 186.802 852.49 187.599 851.868C189.158 850.651 190.626 849.512 192.057 848.456C192.268 848.301 192.462 848.182 192.67 848.03C193.421 847.48 194.141 846.943 194.843 846.44C195.507 845.965 196.013 845.631 196.626 845.2C198.371 843.971 199.906 842.891 201.168 842.021C202.411 841.163 203.396 841.31 204.038 840.819C209.185 840.344 212.711 822.348 211.951 800.499C211.188 778.571 206.373 761.072 201.196 761.42C201.092 761.433 200.992 761.438 200.889 761.459H200.862C200.495 761.539 200.151 761.708 199.803 761.963L163.693 777.974C163.693 777.974 159.302 780.81 154.387 784.41C154.146 747.786 153.738 722.595 153.691 719.937C153.817 712.768 155.593 605.148 153.635 494.613C153.635 494.613 153.634 493.499 153.635 493.449V492.248C153.749 485.777 155.619 377.147 153.635 265.993C155.656 152.725 153.681 40.862 153.635 38.303C153.635 38.2732 153.635 37.4115 153.635 37.4115C153.693 -12.7635 155.508 -63.0712 155.697 -113.826C155.697 -113.859 155.697 -113.869 155.697 -113.903C155.375 -121.639 114.914 -127.006 94.0929 -129.992C89.2233 -130.69 84.306 -130.211 79.4095 -130.457C77.57 -130.549 75.7567 -130.923 73.9204 -131H72.0537L72.0531 -130.999Z" fill="url(#paint0_linear)"/>
<path d="M-7.74236 947.653C-8.32538 987.718 -9.81475 1023.63 -9.81103 1059.3C-9.80999 1070.05 -9.6992 1080.81 -9.48776 1091.68C-9.48776 1092.54 -9.55191 1093.27 -9.55191 1093.75C-9.55191 1101.53 27.0423 1120.38 72.6232 1120.38C116.589 1120.38 153.148 1102.68 155.639 1095.28C155.676 1095.53 155.707 1095.21 155.703 1094.83C155.703 1094.45 155.703 1094.02 155.703 1094.02C155.682 1045.25 153.682 996.499 153.636 947.653H-7.74236Z" fill="url(#paint1_linear)"/>
<path opacity="0.19469" d="M114.325 947.653C113.044 979.756 110.957 1005.18 112.514 1013.77C116.478 1035.66 126.152 1004.77 128.354 1009.82C130.556 1014.87 132.73 1089.51 122.6 1096.81C112.47 1104.11 103.696 1110.78 81.6742 1112.46C59.6521 1114.15 60.9203 1119.21 60.9203 1119.21L61.0486 1119.93C64.8219 1120.19 68.6973 1120.38 72.6216 1120.38C116.588 1120.38 153.146 1102.68 155.637 1095.28C155.674 1095.53 155.712 1095.22 155.701 1094.83C155.701 1094.45 155.637 1094.02 155.637 1094.02L153.635 947.653H114.325Z" fill="black"/>
<path opacity="0.19469" d="M99.8431 947.653C97.6933 967.25 94.3114 984.136 92.6658 991.824C87.3809 1016.52 80.3293 1037.31 87.8167 1045.17C95.3044 1053.03 103.249 1045.14 107.213 1053C111.177 1060.86 106.788 1084.99 98.42 1092.85C90.0516 1100.71 71.1028 1110.84 53.4855 1110.84C35.8678 1110.84 27.9472 1107.43 27.9472 1107.43C27.9472 1107.43 26.1117 1106.23 23.3568 1104.46C22.8888 1106.87 22.3456 1109.55 21.7404 1112.46C35.7104 1116.94 53.3618 1120.38 72.623 1120.38C116.589 1120.38 153.148 1102.68 155.639 1095.28C155.678 1095.53 155.713 1095.22 155.703 1094.83C155.703 1094.45 155.639 1094.02 155.639 1094.02L153.636 947.653H99.8431ZM-7.28919 1087.81C-7.78553 1087.77 -8.31641 1087.93 -8.84089 1088.17C-9.05461 1089.43 -9.25467 1090.57 -9.48743 1091.68C-9.48743 1092.54 -9.61572 1093.18 -9.61572 1093.66C-9.61572 1097.11 -2.41772 1102.78 9.52184 1107.97C10.018 1104.49 10.7373 1099.93 11.8494 1097.53C4.38118 1093.08 -4.23134 1088.07 -7.28818 1087.81H-7.28919Z" fill="black"/>
<path opacity="0.19469" d="M-5.67328 947.653C-4.52006 1015 -4.66908 1068.61 -9.48761 1091.68C-9.48761 1092.54 -9.55176 1093.18 -9.55176 1093.66C-9.55176 1096.23 -5.53391 1100.02 1.43941 1103.92C5.0081 1100.76 8.69461 1095.57 10.8142 1086.73C15.6588 1066.53 2.49342 1045.07 10.297 1028.35C13.0158 1022.52 21.7143 1024.67 24.3913 1018.81C32.374 1001.35 23.9792 986.24 23.0982 958.178C22.9844 954.533 23.2616 950.991 23.2927 947.653H-5.67328Z" fill="#D4AA00"/>
<path opacity="0.522124" d="M41.9124 947.653C42.5348 960.144 43.4369 973.536 42.882 983.907C41.9474 1001.37 35.394 1018.07 35.7054 1027.99C36.017 1037.91 36.6579 1039.5 37.9036 1056.96C39.1493 1074.42 38.5434 1096.24 36.6752 1099.42C34.8065 1102.59 31.6677 1102.62 32.602 1105C33.0909 1106.24 34.1748 1111.16 35.1882 1116.15C40.767 1117.41 46.731 1118.48 52.968 1119.21C50.4654 1110.12 48.672 1099.17 51.6103 1090.69C57.5276 1073.63 59.4334 1074.76 59.4334 1051.74C59.4334 1028.72 54.1199 1017.31 53.8085 1007.39C53.6244 1001.5 57.0603 976.136 58.4641 947.653H41.9124Z" fill="url(#paint2_linear)"/>
<path opacity="0.137168" d="M72.9468 947.653C71.1694 970.335 63.7581 987.547 66.5456 1011.35C69.6601 1037.94 73.1041 1056.14 68.7438 1071.62C64.3835 1087.1 61.2855 1097.42 64.0887 1114.08C64.4255 1116.09 64.7506 1118.15 65.1232 1120.2C67.5825 1120.31 70.1039 1120.38 72.623 1120.38C76.3041 1120.38 79.9222 1120.25 83.4849 1120.02C82.318 1109.75 80.4161 1099.41 82.4504 1095.82C86.4989 1088.68 94.9104 1087.86 92.7304 1076.75C90.5504 1065.64 77.7953 1062.52 77.7953 1039.5C77.7953 1023.87 83.6119 978.184 87.4293 947.653H72.9468Z" fill="#C8AB37"/>
<path opacity="0.176991" d="M-7.7422 947.653C-8.31963 987.926 -9.82928 1024.08 -9.81087 1059.93C-9.81087 1070.49 -9.6949 1081.01 -9.4876 1091.68C-9.4876 1092.54 -9.55175 1093.27 -9.55175 1093.75C-9.55175 1093.99 -9.55174 1094.21 -9.4876 1094.47C-9.42139 1094.72 -9.29115 1095.02 -9.16433 1095.28C-9.06295 1095.49 -8.91358 1095.7 -8.77641 1095.91C-8.60468 1096.18 -8.42045 1096.44 -8.19452 1096.72C-7.96818 1097 -7.69756 1097.33 -7.41867 1097.62C-7.13937 1097.91 -6.84413 1098.22 -6.51352 1098.52C-5.8527 1099.12 -5.10779 1099.77 -4.25063 1100.41C1.18774 1087.32 2.53575 1076.68 1.76218 1060.92C0.827648 1041.87 0.845131 1033.94 0.533758 1016.47C0.266246 1001.48 9.80399 972.996 10.8784 947.653H-7.7422Z" fill="#FFD42A"/>
<path d="M20.5951 965.395C23.0867 1034.85 13.3114 1081.4 9.52588 1107.94C13.1767 1109.53 17.2733 1111.07 21.75 1112.51C23.2003 1105.51 24.5806 1098.86 24.3581 1097.82C23.4238 1093.46 20.5951 965.395 20.5951 965.395Z" fill="#E4CC6C"/>
<path d="M20.5898 965.384C20.5898 965.384 20.7846 973.098 20.952 980.427C20.8949 975.535 20.7741 970.525 20.5898 965.384ZM20.952 980.427C20.9698 981.929 20.9734 983.445 20.9796 984.924C20.9921 984.417 20.9957 983.9 21.0073 983.412C20.9689 981.747 20.985 981.881 20.952 980.427ZM20.4226 1014.12C18.5011 1057.28 12.3479 1088.17 9.52832 1107.94C10.9523 1108.56 12.4585 1109.16 14.0142 1109.76C15.7691 1102.52 21.8771 1075.77 20.7291 1056.34C20.1751 1046.96 20.2095 1030.37 20.4226 1014.12Z" fill="#2B2200"/>
<path d="M-7.74209 494.545C-8.47843 453.561 -9.81104 415.223 -9.81104 379.43C-9.81104 316.096 -7.71519 313.181 -7.74209 264.241H153.636C155.732 379.393 153.636 494.545 153.636 494.545H-7.74209Z" fill="url(#paint3_linear)"/>
<path opacity="0.19469" d="M99.8432 494.545C91.5674 390.908 106.358 384.249 107.149 375.525C108.061 365.475 104.606 307.59 99.8432 264.241H153.636C153.636 264.241 154.122 309.137 154.476 357.982C154.66 434.476 153.636 494.545 153.636 494.545H99.8432Z" fill="black"/>
<path opacity="0.19469" d="M-7.74209 494.545C-8.47843 453.561 -9.81104 415.186 -9.81104 379.393C-9.81104 316.059 -7.71519 313.181 -7.74209 264.241H23.2921C23.4949 286.604 25.3799 301.588 15.0163 302.565C3.1056 303.688 22.8508 436.176 23.2921 494.545H-7.74209Z" fill="#D4AA00"/>
<path opacity="0.247788" d="M41.9125 494.545C43.9814 471.515 44.0323 473.783 43.7228 463.365C42.3693 417.817 27.7471 336.358 27.7471 328.421C27.7471 320.484 41.1515 302.209 41.1515 287.128C41.1515 281.005 41.4865 272.779 41.9125 264.241H58.4641C59.4253 283.715 58.4951 304.629 57.988 322.034C56.7402 364.895 55.9318 413.929 56.8229 459.857C57.0476 471.44 56.3951 474.394 58.4641 494.545H41.9125Z" fill="#C87137"/>
<path opacity="0.176991" d="M-5.67311 494.545L-5.64002 488.891C-6.3805 448.353 -9.81201 414.84 -9.81201 379.393C-9.81201 363.56 -9.68156 351.55 -9.48874 341.609C-9.48874 341.455 -9.48874 341.313 -9.48874 341.159C-7.51724 305.737 -5.52145 274.798 -5.67311 264.241H10.8785C11.0543 268.405 8.61113 308.453 6.73956 330.453C5.10013 349.726 0.451454 366.588 0.349869 385.994C0.161594 421.821 12.9474 474.394 10.8785 494.545H-5.67311Z" fill="#FFD42A"/>
<path opacity="0.137168" d="M72.9471 494.545C66.7403 448.484 75.6196 316.291 75.0161 290.187C74.9499 287.355 73.1559 266.901 72.9471 264.241H87.4298C89.2343 278.651 89.7308 290.034 90.4309 292.706C92.6147 301.04 84.8089 349.814 85.1209 377.991C85.2657 391.131 81.2229 460 87.4298 494.545H72.9471Z" fill="#C8AB37"/>
<path opacity="0.19469" d="M114.326 494.545C108.119 422.575 126.547 427.07 126.739 396.703C127.108 338.549 115.46 292.629 114.326 264.241L153.636 264.241C155.732 379.393 153.636 494.545 153.636 494.545H114.326Z" fill="black"/>
<path d="M-7.74209 37.4122C-8.47843 78.3964 -9.81104 116.735 -9.81104 152.527C-9.81104 215.861 -7.71519 218.777 -7.74209 267.716H153.636C155.732 152.564 153.636 37.4122 153.636 37.4122H-7.74209Z" fill="url(#paint4_linear)"/>
<path opacity="0.19469" d="M99.8432 37.4122C91.5674 141.049 106.358 147.708 107.149 156.433C108.061 166.482 104.606 224.367 99.8432 267.716H153.636C153.636 267.716 154.122 222.82 154.476 173.975C154.66 97.4814 153.636 37.4122 153.636 37.4122H99.8432Z" fill="black"/>
<path opacity="0.19469" d="M-7.74209 37.4122C-8.47843 78.3964 -9.81104 116.772 -9.81104 152.564C-9.81104 215.898 -7.71519 218.777 -7.74209 267.716H23.2921C23.4949 245.353 25.3799 230.369 15.0163 229.392C3.1056 228.27 22.8508 95.7817 23.2921 37.4122H-7.74209Z" fill="#D4AA00"/>
<path opacity="0.247788" d="M41.9125 37.4122C43.9814 60.4426 44.0323 58.174 43.7228 68.5923C42.3693 114.141 27.7471 195.599 27.7471 203.536C27.7471 211.473 41.1515 229.748 41.1515 244.829C41.1515 250.952 41.4865 259.178 41.9125 267.716H58.4641C59.4253 248.242 58.4951 227.328 57.988 209.923C56.7402 167.063 55.9318 118.028 56.8229 72.1009C57.0476 60.5172 56.3951 57.5638 58.4641 37.4122H41.9125Z" fill="#C87137"/>
<path opacity="0.176991" d="M-5.67311 37.4122L-5.64002 43.0665C-6.3805 83.6047 -9.81201 117.118 -9.81201 152.564C-9.81201 168.398 -9.68156 180.408 -9.48874 190.349C-9.48874 190.503 -9.48874 190.644 -9.48874 190.798C-7.51724 226.22 -5.52145 257.16 -5.67311 267.716H10.8785C11.0543 263.553 8.61113 223.504 6.73956 201.504C5.10013 182.232 0.451454 165.37 0.349869 145.964C0.161594 110.137 12.9474 57.5638 10.8785 37.4122H-5.67311Z" fill="#FFD42A"/>
<path opacity="0.137168" d="M72.9471 37.4122C66.7403 83.473 75.6196 215.667 75.0161 241.77C74.9499 244.602 73.1559 265.057 72.9471 267.716H87.4298C89.2343 253.306 89.7308 241.923 90.4309 239.251C92.6147 230.917 84.8089 182.144 85.1209 153.967C85.2657 140.826 81.2229 71.9578 87.4298 37.4122H72.9471Z" fill="#C8AB37"/>
<path opacity="0.19469" d="M114.326 37.4122C108.119 109.382 126.547 104.887 126.739 135.255C127.108 193.408 115.46 239.328 114.326 267.716L153.636 267.716C155.732 152.564 153.636 37.4122 153.636 37.4122H114.326Z" fill="black"/>
<path d="M72.0393 -130.998C70.9635 -130.862 69.6661 -129.911 68.9311 -129.918C68.0732 -129.93 63.6754 -128.258 62.9736 -126.77C62.2719 -125.282 62.1965 -121.642 62.1965 -121.642C62.1965 -121.642 60.4525 -127.422 58.5054 -128.929C57.6103 -129.622 56.4436 -129.349 55.3972 -129.289C33.3308 -128.017 -11.2558 -120.577 -9.74683 -113.905C-9.74807 -113.871 -9.74786 -113.849 -9.74683 -113.815C-7.67134 -52.4521 -7.0939 -2.79695 -7.74269 41.73H153.635C153.587 -9.87859 155.509 -61.6036 155.704 -113.815C155.704 -113.849 155.704 -113.871 155.704 -113.905C155.382 -121.642 114.942 -127.023 94.1212 -130.008C89.2518 -130.707 84.3185 -130.213 79.422 -130.458C77.5823 -130.551 75.7541 -130.921 73.9175 -130.998H72.0398H72.0393Z" fill="url(#paint5_linear)"/>
<path d="M64.5917 -125.87C41.664 -124.932 17.6447 -124.594 -3.59576 -116.874C-6.43319 -116.046 -9.11956 -112.941 -5.14989 -111.566C11.0064 -104.177 30.485 -103.921 48.5324 -102.39C59.7435 -101.979 71.1251 -101.708 82.4642 -101.85C99.0021 -84.7886 95.766 -62.1953 96.0631 -59.9273C96.375 -57.5461 95.4153 5.74535 95.4153 5.74535C95.4153 5.74535 101.244 -68.6388 101.244 -81.3384C101.244 -92.4504 103.548 -100.249 106.683 -102.929C117.494 -103.794 128.228 -105.219 138.672 -107.517L144.241 -108.147C144.241 -108.147 144.765 -97.527 144.436 -85.3867C144.106 -73.2464 144.307 -62.986 144.307 -62.986C144.307 -62.986 147.215 -77.0415 147.545 -81.4283C147.875 -85.8152 149.617 -95.2816 149.617 -96.8119C149.617 -98.1435 149.121 -107.766 148.97 -110.576C151.361 -111.508 153.525 -112.725 152.79 -114.714C143.878 -121.214 130.347 -121.587 118.859 -123.531C103.201 -125.24 87.2702 -125.921 71.3928 -125.87C69.1246 -125.864 66.8577 -125.909 64.5933 -125.87H64.5917Z" fill="url(#paint6_radial)"/>
<path d="M82.4429 -101.876C98.9807 -83.972 95.7537 -62.1756 96.0509 -59.9078C96.3627 -57.5266 95.4268 5.77247 95.4268 5.77247C95.4268 5.77247 96.8128 -23.4383 97.7274 -49.8871C97.7005 -57.5346 97.6571 -72.4552 97.1426 -78.3618C96.6621 -83.8706 93.8623 -91.3498 91.1381 -95.6748C90.2866 -97.0262 87.6972 -99.5827 86.4747 -100.479C83.8422 -102.41 82.4429 -101.876 82.4429 -101.876Z" fill="#A0892C"/>
<path opacity="0.19469" d="M120.994 -125.24L115.943 -123.981V-123.801C116.905 -123.703 117.898 -123.635 118.857 -123.531C130.346 -121.587 143.877 -121.214 152.789 -114.715C153.997 -111.445 147.458 -110.178 144.759 -108.957C135.562 -106.605 126.151 -104.936 116.591 -103.829C117.343 -57.1835 116.052 -1.48129 114.325 41.7304H153.635L155.639 -113.815C155.64 -113.849 155.641 -113.871 155.639 -113.905C155.432 -118.891 138.571 -122.533 120.995 -125.24H120.994Z" fill="black"/>
<path opacity="0.19469" d="M101.114 -128.029C101.448 -126.354 101.545 -126.013 101.762 -124.97C107.501 -124.599 113.179 -124.151 118.857 -123.531C130.346 -121.587 143.877 -121.214 152.789 -114.714C153.997 -111.445 147.459 -110.178 144.76 -108.957C132.414 -105.799 119.604 -103.963 106.683 -102.929C106.198 -102.514 105.679 -101.939 105.129 -101.31C106.006 -90.0379 106.345 -78.2778 107.137 -69.5532C108.048 -59.5039 104.605 -1.61877 99.8423 41.7304H153.635L155.64 -113.815V-113.905C155.349 -120.889 122.861 -125.186 101.115 -128.029L101.114 -128.029Z" fill="black"/>
<path opacity="0.19469" d="M1.32643 -120.292C-5.7115 -118.332 -10.2422 -116.096 -9.74675 -113.905C-9.748 -113.871 -9.748 -113.849 -9.74675 -113.815C-7.89299 -59.0106 -6.48085 -5.32795 -5.67374 41.7305H23.2914C23.4945 19.3676 25.3534 4.38299 14.9898 3.4063C3.07918 2.2838 3.47548 -29.0864 3.91665 -87.4558C3.91665 -87.4558 3.48595 -96.509 2.42727 -108.687C1.96601 -108.834 1.52474 -108.985 1.06741 -109.137L2.55678 -104.459C0.0643721 -103.904 -2.39354 -103.543 -5.14912 -107.428C-7.20513 -108.139 -7.77011 -111.359 -7.15654 -113.545C-7.17726 -113.603 -7.13581 -113.574 -7.15654 -113.635C-7.13374 -114.973 -5.33509 -116.437 -3.53023 -116.963C-1.85964 -117.571 -0.182217 -118.064 1.5207 -118.583C1.45853 -119.169 1.38809 -119.7 1.32592 -120.292H1.32643Z" fill="#D4AA00"/>
<path opacity="0.247788" d="M56.3036 -128.749C48.2927 -128.277 35.0733 -126.38 24.9619 -124.88C24.9619 -124.366 25.0179 -123.876 25.0262 -123.351C34.4488 -124.511 44.0495 -125.037 53.5833 -125.42C53.5626 -126.302 56.3221 -127.911 56.3028 -128.749H56.3036ZM27.4226 -99.9605C27.4232 -99.9548 27.4226 -99.7806 27.4226 -99.7806C28.9823 -60.8883 27.7464 -30.35 27.7464 -22.4128C27.7464 -14.4756 41.1508 3.7993 41.1508 18.8799C41.1508 25.003 41.4859 33.192 41.9119 41.7304H58.4633C59.4245 22.2562 58.4943 1.37897 57.9872 -16.0255C56.7393 -58.8864 52.6892 -57.6696 53.001 -81.8781C53.0549 -86.0761 53.1709 -91.0034 53.2601 -95.7323C51.6885 -96.3419 50.1175 -97.1966 48.5329 -98.2512C41.6166 -98.8383 34.4939 -99.2533 27.4226 -99.9605Z" fill="#C87137"/>
<path opacity="0.176991" d="M-3.66003 -118.853C-4.58194 -118.489 -5.45215 -118.141 -6.18549 -117.773C-6.24351 -117.743 -6.32224 -117.623 -6.38026 -117.593C-6.71927 -117.418 -7.05942 -117.229 -7.3516 -117.053C-7.39097 -117.03 -7.44072 -116.988 -7.48009 -116.964C-7.776 -116.781 -8.07963 -116.607 -8.32166 -116.424C-8.44185 -116.333 -8.53877 -116.245 -8.64569 -116.154C-8.78246 -116.037 -8.92108 -116.001 -9.03423 -115.884C-9.24497 -115.666 -9.42752 -115.383 -9.55227 -115.165C-9.7284 -114.858 -9.81668 -114.57 -9.81129 -114.265C-9.81005 -114.163 -9.76569 -114.006 -9.74704 -113.905V-113.815C-9.67659 -111.734 -9.59786 -109.697 -9.55227 -107.608C-9.53155 -107.297 -9.57299 -106.929 -9.55227 -106.618C-7.73 -48.5295 -7.12851 -1.07117 -7.74291 41.7304H10.8773C11.0535 37.5668 10.6152 33.5048 10.2629 29.5849C7.76759 1.8047 4.35119 16.0614 -1.26357 -14.4968C-6.21317 -41.4357 -5.10503 -71.2881 -3.91829 -111.027C-4.33749 -111.207 -4.73405 -111.377 -5.1489 -111.566C-9.04624 -112.916 -6.50369 -115.981 -3.72428 -116.874C-3.70356 -117.566 -3.67868 -118.155 -3.66003 -118.853V-118.853Z" fill="#FFD42A"/>
<path opacity="0.137168" d="M70.5498 -101.85C71.4725 -65.812 75.6183 -10.2823 75.0149 15.8213C74.9486 18.6534 73.1549 39.0711 72.946 41.7305H87.4287C89.2334 27.3203 89.7295 15.9746 90.4297 13.3024C92.6134 4.96834 84.8077 -43.8051 85.1198 -71.9821C85.2648 -85.1225 85.8637 -92.2673 86.2854 -97.4414C85.1451 -98.9668 83.8801 -100.39 82.4648 -101.85C78.4989 -101.8 74.5159 -101.817 70.5498 -101.85Z" fill="#C8AB37"/>
<path d="M-7.74209 722.535C-8.47843 681.55 -9.81104 643.212 -9.81104 607.419C-9.81104 544.086 -7.71519 541.17 -7.74209 492.23H153.636C155.732 607.382 153.636 722.535 153.636 722.535H-7.74209Z" fill="url(#paint7_linear)"/>
<path opacity="0.19469" d="M99.8432 722.535C91.5674 618.898 106.358 612.239 107.149 603.514C108.061 593.465 104.606 535.58 99.8432 492.23H153.636C153.636 492.23 154.122 537.126 154.476 585.971C154.66 662.465 153.636 722.535 153.636 722.535H99.8432Z" fill="black"/>
<path opacity="0.19469" d="M-7.74209 722.535C-8.47843 681.55 -9.81104 643.175 -9.81104 607.382C-9.81104 544.049 -7.71519 541.17 -7.74209 492.23H23.2921C23.4949 514.593 25.3799 529.578 15.0163 530.554C3.1056 531.677 22.8508 664.165 23.2921 722.535H-7.74209Z" fill="#D4AA00"/>
<path opacity="0.247788" d="M41.9125 722.535C43.9814 699.504 44.0323 701.773 43.7228 691.354C42.3693 645.806 27.7471 564.348 27.7471 556.411C27.7471 548.473 41.1515 530.198 41.1515 515.118C41.1515 508.995 41.4865 500.769 41.9125 492.23H58.4641C59.4253 511.705 58.4951 532.619 57.988 550.023C56.7402 592.884 55.9318 641.919 56.8229 687.846C57.0476 699.43 56.3951 702.383 58.4641 722.535H41.9125Z" fill="#C87137"/>
<path opacity="0.176991" d="M-5.67311 722.535L-5.64002 716.88C-6.3805 676.342 -9.81201 642.829 -9.81201 607.382C-9.81201 591.549 -9.68156 579.539 -9.48874 569.598C-9.48874 569.444 -9.48874 569.303 -9.48874 569.148C-7.51724 533.726 -5.52145 502.787 -5.67311 492.23H10.8785C11.0543 496.394 8.61113 536.442 6.73956 558.443C5.10013 577.715 0.451454 594.577 0.349869 613.983C0.161594 649.81 12.9474 702.383 10.8785 722.535H-5.67311Z" fill="#FFD42A"/>
<path opacity="0.137168" d="M72.9471 722.535C66.7403 676.474 75.6196 544.28 75.0161 518.177C74.9499 515.344 73.1559 494.89 72.9471 492.23H87.4298C89.2343 506.641 89.7308 518.023 90.4309 520.695C92.6147 529.03 84.8089 577.803 85.1209 605.98C85.2657 619.12 81.2229 687.989 87.4298 722.535H72.9471Z" fill="#C8AB37"/>
<path opacity="0.19469" d="M114.326 722.535C108.119 650.565 126.547 655.059 126.739 624.692C127.108 566.539 115.46 520.618 114.326 492.23L153.636 492.23C155.732 607.383 153.636 722.535 153.636 722.535H114.326Z" fill="black"/>
<path d="M-7.74209 717.905C-8.47843 758.889 -9.81104 797.228 -9.81104 833.02C-9.81104 896.354 -7.71519 899.27 -7.74209 948.209H153.636C155.732 833.057 153.636 717.905 153.636 717.905H-7.74209Z" fill="url(#paint8_linear)"/>
<path opacity="0.19469" d="M99.8432 717.905C91.5674 821.542 106.358 828.201 107.149 836.925C108.061 846.975 104.606 904.86 99.8432 948.209H153.636C153.636 948.209 154.122 903.313 154.476 854.468C154.66 777.974 153.636 717.905 153.636 717.905H99.8432Z" fill="black"/>
<path opacity="0.19469" d="M-7.74209 717.905C-8.47843 758.889 -9.81104 797.265 -9.81104 833.057C-9.81104 896.391 -7.71519 899.27 -7.74209 948.209H23.2921C23.4949 925.846 25.3799 910.862 15.0163 909.885C3.1056 908.763 22.8508 776.274 23.2921 717.905H-7.74209Z" fill="#D4AA00"/>
<path opacity="0.247788" d="M41.9125 717.905C43.9814 740.935 44.0323 738.667 43.7228 749.085C42.3693 794.634 27.7471 876.092 27.7471 884.029C27.7471 891.966 41.1515 910.241 41.1515 925.322C41.1515 931.445 41.4865 939.671 41.9125 948.209H58.4641C59.4253 928.735 58.4951 907.821 57.988 890.416C56.7402 847.555 55.9318 798.521 56.8229 752.594C57.0476 741.01 56.3951 738.057 58.4641 717.905H41.9125Z" fill="#C87137"/>
<path opacity="0.176991" d="M-5.67311 717.905L-5.64002 723.559C-6.3805 764.098 -9.81201 797.61 -9.81201 833.057C-9.81201 848.89 -9.68156 860.9 -9.48874 870.841C-9.48874 870.996 -9.48874 871.137 -9.48874 871.291C-7.51724 906.713 -5.52145 937.653 -5.67311 948.209H10.8785C11.0543 944.045 8.61113 903.997 6.73956 881.997C5.10013 862.725 0.451454 845.863 0.349869 826.456C0.161594 790.629 12.9474 738.057 10.8785 717.905H-5.67311Z" fill="#FFD42A"/>
<path opacity="0.137168" d="M72.9471 717.905C66.7403 763.966 75.6196 896.159 75.0161 922.263C74.9499 925.095 73.1559 945.55 72.9471 948.209H87.4298C89.2343 933.799 89.7308 922.416 90.4309 919.744C92.6147 911.41 84.8089 862.637 85.1209 834.46C85.2657 821.319 81.2229 752.451 87.4298 717.905H72.9471Z" fill="#C8AB37"/>
<path opacity="0.19469" d="M114.326 717.905C108.119 789.875 126.547 785.38 126.739 815.747C127.108 873.901 115.46 919.821 114.326 948.209L153.636 948.209C155.732 833.057 153.636 717.905 153.636 717.905H114.326Z" fill="black"/>
<path d="M202.168 760.787L205.323 840.275C204.681 840.767 203.678 840.612 202.435 841.471C192.341 848.445 164.586 867.213 154.304 892.66L150.713 903.119C110.645 908.231 114.082 848.314 123.86 823.21C130.862 805.233 136.185 801.891 144.483 793.095C150.432 786.788 164.954 777.312 164.954 777.312L202.168 760.787Z" fill="url(#paint9_linear)"/>
<path d="M161.129 820.718C168.875 820.602 177.568 825.59 188.267 833.479C194.343 837.958 198.157 840.745 200.889 842.527C189.833 850.166 164.141 868.324 154.302 892.671L150.708 903.111C137.736 938.471 127.976 904.543 123.071 889.705C126.718 889.75 128.203 885.889 128.084 884.521C127.638 879.417 125.855 863.64 139.675 838.583C146.585 826.054 153.383 820.834 161.129 820.718Z" fill="url(#paint10_linear)"/>
<path d="M202.162 760.784L164.966 777.324C164.966 777.324 150.436 786.78 144.487 793.087C136.189 801.883 130.871 805.239 123.868 823.216C118.074 838.093 114.494 865.196 120.887 883.746C120.912 883.71 120.948 883.665 120.971 883.629C125.226 877.04 123.804 860.796 129.163 836.417C134.521 812.038 159.108 813.323 160.842 810.248C162.576 807.173 154.713 807.186 155.186 802.794C155.597 798.981 168.012 787.058 202.72 775.072L202.162 760.784L202.162 760.784Z" fill="url(#paint11_linear)"/>
<path d="M194.486 801.151C194.514 801.96 194.019 802.57 194.058 803.367C194.09 804.035 194.656 804.894 194.696 805.553C194.802 807.303 194.974 813.136 195.13 814.807C196.74 832.084 200.84 840.578 205.24 840.281C210.417 839.931 213.997 821.844 213.235 799.883C212.473 777.922 207.658 760.403 202.481 760.753C197.304 761.103 193.724 779.19 194.486 801.151Z" fill="url(#paint12_linear)"/>
<path d="M202.552 766.842C198.369 767.466 195.646 782.889 196.451 801.281C197.256 819.672 201.295 834.091 205.478 833.467C209.661 832.843 212.413 817.42 211.608 799.029C210.803 780.637 206.736 766.218 202.552 766.842ZM203.221 770.336C206.56 770.601 209.709 783.247 210.354 799.262C211.019 815.793 208.767 829.645 205.311 830.206C201.854 830.767 198.509 817.851 197.844 801.319C197.178 784.788 199.43 770.937 202.887 770.375C202.995 770.358 203.113 770.328 203.221 770.337V770.336Z" fill="#C8AB37"/>
<path opacity="0.229075" d="M209.119 799.099C209.669 812.769 207.797 824.227 204.939 824.691C202.081 825.155 199.318 814.449 198.767 800.779C198.217 787.109 200.089 775.651 202.947 775.187C205.805 774.723 208.569 785.428 209.119 799.099Z" fill="#D3BC5F"/>
<path opacity="0.229075" d="M207.813 796.538C208.183 805.729 206.925 813.432 205.003 813.744C203.081 814.056 201.223 806.859 200.854 797.668C200.484 788.477 201.742 780.774 203.664 780.462C205.585 780.15 207.443 787.348 207.813 796.538Z" fill="#504416"/>
</g>
<defs>
<filter id="filter0_d" x="-9.81201" y="-131" width="233.149" height="1262.38" filterUnits="userSpaceOnUse" color-interpolation-filters="sRGB">
<feFlood flood-opacity="0" result="BackgroundImageFix"/>
<feColorMatrix in="SourceAlpha" type="matrix" values="0 0 0 0 0 0 0 0 0 0 0 0 0 0 0 0 0 0 127 0"/>
<feOffset dx="5" dy="6"/>
<feGaussianBlur stdDeviation="2.5"/>
<feColorMatrix type="matrix" values="0 0 0 0 0 0 0 0 0 0 0 0 0 0 0 0 0 0 0.25 0"/>
<feBlend mode="normal" in2="BackgroundImageFix" result="effect1_dropShadow"/>
<feBlend mode="normal" in="SourceGraphic" in2="effect1_dropShadow" result="shape"/>
</filter>
<linearGradient id="paint0_linear" x1="-9.84009" y1="890.055" x2="155.674" y2="890.055" gradientUnits="userSpaceOnUse">
<stop stop-color="#A45D2D"/>
<stop offset="1" stop-color="#502D16"/>
</linearGradient>
<linearGradient id="paint1_linear" x1="-9.81094" y1="890.04" x2="155.703" y2="890.04" gradientUnits="userSpaceOnUse">
<stop stop-color="#A45D2D"/>
<stop offset="1" stop-color="#502D16"/>
</linearGradient>
<linearGradient id="paint2_linear" x1="46.5219" y1="814.142" x2="58.6637" y2="1375.87" gradientUnits="userSpaceOnUse">
<stop stop-color="#A36621"/>
<stop offset="1" stop-color="#A36621" stop-opacity="0"/>
</linearGradient>
<linearGradient id="paint3_linear" x1="-10.0974" y1="321.891" x2="155.677" y2="321.891" gradientUnits="userSpaceOnUse">
<stop stop-color="#A45D2D"/>
<stop offset="1" stop-color="#502D16"/>
</linearGradient>
<linearGradient id="paint4_linear" x1="-10.0974" y1="210.066" x2="155.677" y2="210.066" gradientUnits="userSpaceOnUse">
<stop stop-color="#A45D2D"/>
<stop offset="1" stop-color="#502D16"/>
</linearGradient>
<linearGradient id="paint5_linear" x1="-10.0706" y1="-15.883" x2="155.703" y2="-15.883" gradientUnits="userSpaceOnUse">
<stop stop-color="#A45D2D"/>
<stop offset="1" stop-color="#502D16"/>
</linearGradient>
<radialGradient id="paint6_radial" cx="0" cy="0" r="1" gradientUnits="userSpaceOnUse" gradientTransform="translate(70.851 -112.188) rotate(89.7926) scale(24.1662 83.2394)">
<stop stop-color="#FFE680"/>
<stop offset="1" stop-color="#D3BC5F"/>
</radialGradient>
<linearGradient id="paint7_linear" x1="-10.0974" y1="549.88" x2="155.677" y2="549.88" gradientUnits="userSpaceOnUse">
<stop stop-color="#A45D2D"/>
<stop offset="1" stop-color="#502D16"/>
</linearGradient>
<linearGradient id="paint8_linear" x1="-10.0974" y1="890.559" x2="155.677" y2="890.559" gradientUnits="userSpaceOnUse">
<stop stop-color="#A45D2D"/>
<stop offset="1" stop-color="#502D16"/>
</linearGradient>
<linearGradient id="paint9_linear" x1="118.965" y1="859.915" x2="266.969" y2="755.143" gradientUnits="userSpaceOnUse">
<stop stop-color="#502D16"/>
<stop offset="1" stop-color="#8E5127"/>
</linearGradient>
<linearGradient id="paint10_linear" x1="145.693" y1="903.766" x2="145.21" y2="815.602" gradientUnits="userSpaceOnUse">
<stop stop-color="#3D2311"/>
<stop offset="1" stop-color="#3C2311" stop-opacity="0"/>
</linearGradient>
<linearGradient id="paint11_linear" x1="181.656" y1="765.46" x2="115.567" y2="788.675" gradientUnits="userSpaceOnUse">
<stop stop-color="#784421"/>
<stop offset="1" stop-color="#D38D5F" stop-opacity="0"/>
</linearGradient>
<linearGradient id="paint12_linear" x1="217.251" y1="743.29" x2="176.02" y2="816.964" gradientUnits="userSpaceOnUse">
<stop stop-color="#A0892C"/>
<stop offset="1" stop-color="#D3BC5F"/>
</linearGradient>
</defs>
</svg>
